# xmcd CD database file
#
# Track frame offsets:
#	150
#	9616
#	31794
#	52337
#	74621
#	88059
#	105917
#	133661
#	147601
#	170451
#	187615
#	211563
#	234409
#	257168
#
# Disc length: 3599 seconds
#
# Revision: 0
# Processed by: cddbd v1.5.2PL0 Copyright (c) Steve Scherf et al.
# Submitted via: CDex 1.70beta2
#
DISCID=be0e0d0e
DTITLE=Oliver Steger - Jazz and Peace
DYEAR=2016
DGENRE=Jazz
TTITLE0=Lagrima
TTITLE1=Goodbye Pork Pie Hat
TTITLE2=Helena
TTITLE3=Go for it
TTITLE4=Max
TTITLE5=Paula
TTITLE6=The Night has a 1000 Eyes
TTITLE7=Keller
TTITLE8=Got to go
TTITLE9=Aomame
TTITLE10=Beatrice
TTITLE11=Ida
TTITLE12=You'd be so nice to come home to
TTITLE13=In the End
EXTD=YEAR: 2016
EXTT0=
EXTT1=
EXTT2=
EXTT3=
EXTT4=
EXTT5=
EXTT6=
EXTT7=
EXTT8=
EXTT9=
EXTT10=
EXTT11=
EXTT12=
EXTT13=
PLAYORDER=
